<?xml version="1.0" encoding="UTF-8"?>
<svg version="1.1" xmlns="http://www.w3.org/2000/svg" width="225" height="74">
<path d="M0 0 C2.87846297 0.37874513 5.55706715 0.82952413 8.2734375 1.875 C13.38331356 3.80933794 16.29675457 4.33385503 21.4375 2.1875 C22.24058594 1.78917969 23.04367188 1.39085937 23.87109375 0.98046875 C26 0 26 0 29 0 C29.84161854 2.08000011 30.67300763 4.16414146 31.5 6.25 C31.9640625 7.41015625 32.428125 8.5703125 32.90625 9.765625 C34 13 34 13 34 17 C23.77 16.67 13.54 16.34 3 16 C3 15.67 3 15.34 3 15 C11.91 15 20.82 15 30 15 C28.68 11.7 27.36 8.4 26 5 C24.02 5.33 22.04 5.66 20 6 C19.67 6.99 19.34 7.98 19 9 C16.03 9 13.06 9 10 9 C10 8.01 10 7.02 10 6 C7.36 5.34 4.72 4.68 2 4 C1.855625 5.051875 1.71125 6.10375 1.5625 7.1875 C1.12473034 10.15460549 0.62195134 13.06794366 0 16 C-1.65 16.33 -3.3 16.66 -5 17 C-4.46246904 10.81839396 -2.45417612 5.673142 0 0 Z " fill="#B6B6B7" transform="translate(35,32)"/>
<path d="M0 0 C4 0 4 0 5.703125 1.53125 C6.21359375 2.1809375 6.7240625 2.830625 7.25 3.5 C8.03117188 4.47453125 8.03117188 4.47453125 8.828125 5.46875 C9.21484375 5.9740625 9.6015625 6.479375 10 7 C10.33 4.69 10.66 2.38 11 0 C12.32 0 13.64 0 15 0 C15 4.95 15 9.9 15 15 C11 15 11 15 9.078125 13.25 C8.47484375 12.5075 7.8715625 11.765 7.25 11 C6.32960937 9.88625 6.32960937 9.88625 5.390625 8.75 C4.93171875 8.1725 4.4728125 7.595 4 7 C4 9.64 4 12.28 4 15 C2.68 15 1.36 15 0 15 C0 10.05 0 5.1 0 0 Z " fill="#7D7D7F" transform="translate(160,33)"/>
<path d="M0 0 C2.13422312 1.60189957 2.89530172 2.48782733 3.43359375 5.12109375 C3.43994339 8.88642847 3.4311636 11.29289169 1.4375 14.5625 C-1.99917081 16.58925458 -4.07417186 16.6198676 -8 16 C-10.9375 13.9375 -10.9375 13.9375 -13 11 C-13.53416903 7.19404569 -13.55569356 5.00554073 -11.6875 1.625 C-8.07389756 -1.85476532 -4.57863555 -0.98113619 0 0 Z M-9 3 C-9.58081094 8.36554365 -9.58081094 8.36554365 -7.5 13 C-7.005 13.33 -6.51 13.66 -6 14 C-3.46255685 13.45291273 -3.46255685 13.45291273 -1 12 C0.17712315 8.61577095 0.42094088 6.88865297 -1.125 3.625 C-2.92231822 1.76032918 -2.92231822 1.76032918 -5.625 1.6875 C-7.95137906 1.74843946 -7.95137906 1.74843946 -9 3 Z " fill="#ABACAD" transform="translate(193,33)"/>
<path d="M0 0 C2.5 2.125 2.5 2.125 4 5 C4 8.95524221 3.56831266 11.17910394 1.3125 14.4375 C-1.7968239 16.53839453 -3.30844473 16.66447995 -7 16 C-10.375 13.9375 -10.375 13.9375 -13 11 C-13.625 7.4375 -13.625 7.4375 -13 4 C-9.01693752 -1.04521248 -6.191012 -1.49438221 0 0 Z M-9 4 C-9.50007794 7.45786015 -9.50007794 7.45786015 -9 11 C-7.13875077 12.98239527 -7.13875077 12.98239527 -5 14 C-2.3094472 12.77992056 -2.3094472 12.77992056 0 11 C0.26293056 6.96839809 0.29404844 5.44107266 -2 2 C-5.45795783 1.56775527 -6.47975609 1.47975609 -9 4 Z " fill="#C4C5C6" transform="translate(85,33)"/>
<path d="M0 0 C2.61904157 0.53863308 3.76638607 0.97425118 5.875 2.6875 C7.29270116 6.05454026 7.31963424 8.44190691 6.875 12.0625 C5.3125 15 5.3125 15 2.875 17.0625 C-0.5625 17.6875 -0.5625 17.6875 -4.125 17.0625 C-7.81686542 14.47033917 -8.95383761 13.02100936 -9.75 8.5625 C-9.125 5.0625 -9.125 5.0625 -7.125 2.0625 C-4.05807963 0.01788642 -3.45606293 -0.26143649 0 0 Z M-4.125 3.0625 C-5.50456016 6.35811593 -6.2861131 8.33749107 -5.5 11.875 C-4.32172418 14.17865265 -4.32172418 14.17865265 -2.1875 15 C0.18950092 15.27146722 0.18950092 15.27146722 2.875 13.0625 C3.27587331 11.15543424 3.27587331 11.15543424 3.125 9.0625 C3.10953125 8.36125 3.0940625 7.66 3.078125 6.9375 C2.97543334 4.97313372 2.97543334 4.97313372 1.875 3.0625 C-0.105 3.0625 -2.085 3.0625 -4.125 3.0625 Z " fill="#9C9D9E" transform="translate(148.125,31.9375)"/>
<path d="M0 0 C1 1 1 1 1.125 4.4375 C1 8 1 8 0 10 C1.39092892 12.62387135 1.39092892 12.62387135 3 15 C1.68 15.33 0.36 15.66 -1 16 C-1.61875 15.030625 -2.2375 14.06125 -2.875 13.0625 C-4.65678846 9.97164638 -4.65678846 9.97164638 -7 9 C-6.67 10.98 -6.34 12.96 -6 15 C-7.32 15.33 -8.64 15.66 -10 16 C-10 10.72 -10 5.44 -10 0 C-6.681572 -1.659214 -3.60735024 -0.57259528 0 0 Z M-7 2 C-7 3.98 -7 5.96 -7 8 C-5.68 7.67 -4.36 7.34 -3 7 C-2.67 5.35 -2.34 3.7 -2 2 C-3.65 2 -5.3 2 -7 2 Z " fill="#606164" transform="translate(104,33)"/>
<path d="M0 0 C4.29 0 8.58 0 13 0 C11.43469176 3.9132706 10.35471762 6.13199262 7.875 9.3125 C7.33617187 10.00988281 6.79734375 10.70726562 6.2421875 11.42578125 C5.83226563 11.94527344 5.42234375 12.46476562 5 13 C7.64 13 10.28 13 13 13 C12.67 13.99 12.34 14.98 12 16 C7.71 16 3.42 16 -1 16 C0.00873842 11.96504633 1.0115662 10.40388179 3.5625 7.25 C4.20316406 6.45078125 4.84382813 5.6515625 5.50390625 4.828125 C5.99761719 4.22484375 6.49132812 3.6215625 7 3 C4.69 3 2.38 3 0 3 C0 2.01 0 1.02 0 0 Z " fill="#B6B7B8" transform="translate(121,33)"/>
<path d="M0 0 C3.9492568 0.55105909 7.34920174 1.38935371 11 3 C10.67 3.99 10.34 4.98 10 6 C7.36 5.34 4.72 4.68 2 4 C1.855625 5.051875 1.71125 6.10375 1.5625 7.1875 C1.12473034 10.15460549 0.62195134 13.06794366 0 16 C-1.65 16.33 -3.3 16.66 -5 17 C-4.46246904 10.81839396 -2.45417612 5.673142 0 0 Z " fill="#626364" transform="translate(35,32)"/>
<path d="M0 0 C0.99 0.33 1.98 0.66 3 1 C2.814375 2.0725 2.62875 3.145 2.4375 4.25 C1.7670518 7.7793006 1.7670518 7.7793006 2.6875 10.1875 C2.790625 10.785625 2.89375 11.38375 3 12 C1.0625 14.25 1.0625 14.25 -1 16 C-1.99 15.67 -2.98 15.34 -4 15 C-3.125 10.25 -3.125 10.25 -2 8 C-2.66 8 -3.32 8 -4 8 C-4.25 5.6875 -4.25 5.6875 -4 3 C-2.1875 1.125 -2.1875 1.125 0 0 Z " fill="#E0C795" transform="translate(121,15)"/>
<path d="M0 0 C2.4375 0.6875 2.4375 0.6875 5 2 C5.9375 4.5 5.9375 4.5 6 7 C5.34 7.66 4.68 8.32 4 9 C4.99 10.485 4.99 10.485 6 12 C5.625 14.1875 5.625 14.1875 5 16 C2.5625 15.375 2.5625 15.375 0 14 C-1.34971535 9.12025989 -1.05788301 4.89270892 0 0 Z " fill="#E5D1A5" transform="translate(103,15)"/>
<path d="M0 0 C1.32 0 2.64 0 4 0 C4 5.61 4 11.22 4 17 C2.68 17 1.36 17 0 17 C0 11.39 0 5.78 0 0 Z " fill="#A1A2A3" transform="translate(111,31)"/>
<path d="M0 0 C0.66 0.33 1.32 0.66 2 1 C2.48076923 7.25 2.48076923 7.25 0.4375 10.4375 C-2.94217804 12.60396028 -5.05983987 12.56288002 -9 12 C-11.4375 10.4375 -11.4375 10.4375 -13 8 C-13.25 4.25 -13.25 4.25 -13 1 C-12.34 1 -11.68 1 -11 1 C-10.67 3.31 -10.34 5.62 -10 8 C-7.69 8.66 -5.38 9.32 -3 10 C-0.70424397 7.70424397 -0.67660401 6.99157475 -0.375 3.875 C-0.25125 2.59625 -0.1275 1.3175 0 0 Z " fill="#626365" transform="translate(85,36)"/>
<path d="M0 0 C1.32 0 2.64 0 4 0 C4.309375 0.78375 4.61875 1.5675 4.9375 2.375 C5.92875038 4.92330128 5.92875038 4.92330128 7 7 C6.01 7.33 5.02 7.66 4 8 C4 10.31 4 12.62 4 15 C2.68 15 1.36 15 0 15 C0 10.05 0 5.1 0 0 Z " fill="#414244" transform="translate(160,33)"/>
<path d="M0 0 C1.5 2.0625 1.5 2.0625 2 4 C1.01 4 0.02 4 -1 4 C-1.33 3.34 -1.66 2.68 -2 2 C-3.98 2.33 -5.96 2.66 -8 3 C-8.95024979 6.69541586 -8.95024979 9.30458414 -8 13 C-9.5 11.875 -9.5 11.875 -11 10 C-11.29579083 6.52445779 -11.2196117 3.29295158 -10 0 C-6.76369066 -1.61815467 -3.41944272 -0.97077399 0 0 Z " fill="#C8C8C9" transform="translate(152,33)"/>
<path d="M0 0 C1.32 0 2.64 0 4 0 C4.75 1.75 4.75 1.75 5 4 C3.3125 6.3125 3.3125 6.3125 1 8 C-1.25 7.75 -1.25 7.75 -3 7 C-1.125 1.125 -1.125 1.125 0 0 Z " fill="#E5D3A6" transform="translate(127,23)"/>
<path d="M0 0 C2.4375 0.625 2.4375 0.625 5 2 C5.8125 5.125 5.8125 5.125 6 8 C4 9 4 9 1.9375 8.4375 C0 7 0 7 -0.8125 3.9375 C-0.874375 2.968125 -0.93625 1.99875 -1 1 C-0.67 0.67 -0.34 0.34 0 0 Z " fill="#E5CFA2" transform="translate(95,22)"/>
<path d="M0 0 C7.875 0.875 7.875 0.875 9 2 C9.23961213 6.23314767 9.32488647 9.36736489 7 13 C6.34 11.68 5.68 10.36 5 9 C5.66 8.67 6.32 8.34 7 8 C7 6.35 7 4.7 7 3 C5.02 3 3.04 3 1 3 C1 4.98 1 6.96 1 9 C0.67 9 0.34 9 0 9 C0 6.03 0 3.06 0 0 Z " fill="#DDDEDF" transform="translate(96,32)"/>
<path d="M0 0 C0.66 0.33 1.32 0.66 2 1 C1.67 1.66 1.34 2.32 1 3 C0.75212983 7.14503661 0.75212983 7.14503661 2 11 C3.97888961 11.72693904 5.97954558 12.39816251 8 13 C8 13.33 8 13.66 8 14 C1.59903382 14.48309179 1.59903382 14.48309179 -0.9375 12.4375 C-2.38073056 9.12655931 -2.32494847 6.57443322 -2 3 C-1.34 2.01 -0.68 1.02 0 0 Z " fill="#56585A" transform="translate(141,34)"/>
<path d="M0 0 C0.99 0.66 1.98 1.32 3 2 C3.1875 5.625 3.1875 5.625 3 9 C1.68 9 0.36 9 -1 9 C-1.625 6.1875 -1.625 6.1875 -2 3 C-1.34 2.01 -0.68 1.02 0 0 Z " fill="#E0C895" transform="translate(112,19)"/>
<path d="M0 0 C2.375 -0.1875 2.375 -0.1875 5 0 C7 3 7 3 6.625 5.1875 C6.41875 5.785625 6.2125 6.38375 6 7 C3.5625 6.3125 3.5625 6.3125 1 5 C0.1875 2.375 0.1875 2.375 0 0 Z " fill="#E0C891" transform="translate(102,24)"/>
<path d="M0 0 C1.32 0 2.64 0 4 0 C4.93065133 2.60582371 5.14917407 3.64198224 4.0625 6.25 C3.5365625 7.11625 3.5365625 7.11625 3 8 C2.01 7.67 1.02 7.34 0 7 C-0.38133299 5.0085944 -0.71325582 3.00720923 -1 1 C-0.67 0.67 -0.34 0.34 0 0 Z " fill="#E0C994" transform="translate(111,10)"/>
<path d="M0 0 C0.66 0 1.32 0 2 0 C2 4.95 2 9.9 2 15 C0.68 15 -0.64 15 -2 15 C-2 14.01 -2 13.02 -2 12 C-1.67 12.33 -1.34 12.66 -1 13 C-0.67 8.71 -0.34 4.42 0 0 Z " fill="#EAEBEC" transform="translate(173,33)"/>
<path d="M0 0 C0.6875 1.75 0.6875 1.75 1 4 C-0.4375 6.25 -0.4375 6.25 -2 8 C0.64 8.33 3.28 8.66 6 9 C6 9.33 6 9.66 6 10 C2.04 10 -1.92 10 -6 10 C-4.21739173 6.43478346 -2.24007711 3.28544643 0 0 Z " fill="#606365" transform="translate(126,38)"/>
<path d="M0 0 C0.99 0.33 1.98 0.66 3 1 C2.34 1 1.68 1 1 1 C1.45964373 5.59643727 1.872918 8.89777043 4 13 C3.67 13.99 3.34 14.98 3 16 C2.01 16 1.02 16 0 16 C0 10.72 0 5.44 0 0 Z " fill="#97989A" transform="translate(94,33)"/>
<path d="M0 0 C3.875 0.875 3.875 0.875 5 2 C5.3125 4.8125 5.3125 4.8125 5 8 C3 10.375 3 10.375 1 12 C1.20625 10.7625 1.4125 9.525 1.625 8.25 C2.06107124 4.88090165 2.03403639 2.87158079 0 0 Z " fill="#535457" transform="translate(190,35)"/>
<path d="M0 0 C0.66 0.33 1.32 0.66 2 1 C1.42655063 3.86724686 1.1385485 4.8614515 -1 7 C-1.99 7 -2.98 7 -4 7 C-3.6875 4.625 -3.6875 4.625 -3 2 C-2.01 1.34 -1.02 0.68 0 0 Z " fill="#D7B777" transform="translate(121,15)"/>
<path d="M0 0 C1.24142712 4.96570849 0.37261666 7.15547062 -1 12 C-2.65 12.33 -4.3 12.66 -6 13 C-5.67 11.68 -5.34 10.36 -5 9 C-4.67 9.33 -4.34 9.66 -4 10 C-2.68 6.7 -1.36 3.4 0 0 Z " fill="#D1D1D2" transform="translate(36,36)"/>
<path d="M0 0 C3.33773709 3.64116773 3.97864902 7.28607242 5 12 C4.34 12 3.68 12 3 12 C0.58314288 7.77050005 -0.34833144 4.87664009 0 0 Z " fill="#4D4D50" transform="translate(63,36)"/>
<path d="M0 0 C2 2 2 2 2.1953125 4.1640625 C2.17210937 4.97617187 2.14890625 5.78828125 2.125 6.625 C2.10695312 7.44226562 2.08890625 8.25953125 2.0703125 9.1015625 C2.03550781 10.04128906 2.03550781 10.04128906 2 11 C0.68 11 -0.64 11 -2 11 C-1.34 10.67 -0.68 10.34 0 10 C0 6.7 0 3.4 0 0 Z " fill="#E1E2E2" transform="translate(162,37)"/>
<path d="M0 0 C1 3 1 3 0.0625 5.1875 C-0.4634375 6.0846875 -0.4634375 6.0846875 -1 7 C-1.33 6.01 -1.66 5.02 -2 4 C-4.50447516 2.78130071 -4.50447516 2.78130071 -7 2 C-4 0 -4 0 0 0 Z " fill="#747576" transform="translate(63,33)"/>
<path d="M0 0 C0.33 0.66 0.66 1.32 1 2 C-1.64 2.33 -4.28 2.66 -7 3 C-7.33 2.01 -7.66 1.02 -8 0 C-4.69693408 -1.10102197 -3.28414305 -0.95067299 0 0 Z " fill="#A7A7A9" transform="translate(191,33)"/>
<path d="M0 0 C3.37462715 0.54723683 5.08235 1.0549 8 3 C7.67 3.66 7.34 4.32 7 5 C4.36 4.34 1.72 3.68 -1 3 C-0.67 2.01 -0.34 1.02 0 0 Z " fill="#A2A3A4" transform="translate(38,33)"/>
<path d="M0 0 C0.66 0 1.32 0 2 0 C1.40138258 2.35171131 0.73075648 4.6859378 0 7 C-0.99 7.495 -0.99 7.495 -2 8 C-1.125 1.125 -1.125 1.125 0 0 Z " fill="#4B4C4E" transform="translate(33,39)"/>
<path d="M0 0 C0.98120464 3.05263664 0.98120464 4.94736336 0 8 C-2.97 7.505 -2.97 7.505 -6 7 C-5.195625 6.401875 -4.39125 5.80375 -3.5625 5.1875 C-0.77672016 3.19052724 -0.77672016 3.19052724 0 0 Z " fill="#FBF9F0" transform="translate(123,16)"/>
</svg>
